<svg width="32" height="32" viewBox="0 0 32 32" fill="none" xmlns="http://www.w3.org/2000/svg">
<path d="M16 32C13.1042 32 10.4271 31.2865 7.96875 29.8594C5.51042 28.4323 3.56771 26.4896 2.14062 24.0312C0.713542 21.5729 0 18.8958 0 16C0 13.1042 0.713542 10.4271 2.14062 7.96875C3.56771 5.51042 5.51042 3.56771 7.96875 2.14062C10.4271 0.713542 13.1042 0 16 0C18.8958 0 21.5729 0.713542 24.0312 2.14062C26.4896 3.56771 28.4323 5.51042 29.8594 7.96875C31.2865 10.4271 32 13.1042 32 16C32 18.8958 31.2865 21.5729 29.8594 24.0312C28.4323 26.4896 26.4896 28.4323 24.0312 29.8594C21.5729 31.2865 18.8958 32 16 32ZM16 4C13.8333 4 11.8281 4.53646 9.98438 5.60938C8.14062 6.68229 6.68229 8.14062 5.60938 9.98438C4.53646 11.8281 4 13.8333 4 16C4 18.1667 4.53646 20.1719 5.60938 22.0156C6.68229 23.8594 8.14062 25.3177 9.98438 26.3906C11.8281 27.4635 13.8333 28 16 28C18.1667 28 20.1719 27.4635 22.0156 26.3906C23.8594 25.3177 25.3177 23.8594 26.3906 22.0156C27.4635 20.1719 28 18.1667 28 16C28 13.8333 27.4635 11.8281 26.3906 9.98438C25.3177 8.14062 23.8594 6.68229 22.0156 5.60938C20.1719 4.53646 18.1667 4 16 4ZM22.9375 13.5C22.8125 13.9375 22.5729 14.2969 22.2188 14.5781C21.8646 14.8594 21.4583 15 21 15C20.8333 15 20.6667 14.9688 20.5 14.9062C20.3333 14.8438 20.1979 14.7812 20.0938 14.7188C19.9896 14.6562 19.8698 14.5521 19.7344 14.4062C19.599 14.2604 19.5052 14.1562 19.4531 14.0938C19.401 14.0312 19.3281 13.9219 19.2344 13.7656C19.1406 13.6094 19.0833 13.5208 19.0625 13.5C18.25 12.5 17.2292 12 16 12C14.8958 12 13.9531 12.3906 13.1719 13.1719C12.3906 13.9531 12 14.8958 12 16C12 17.1042 12.3906 18.0469 13.1719 18.8281C13.9531 19.6094 14.8958 20 16 20C17.2292 20 18.25 19.5 19.0625 18.5C19.1042 18.4583 19.2031 18.3177 19.3594 18.0781C19.5156 17.8385 19.6458 17.6615 19.75 17.5469C19.8542 17.4323 20.0208 17.3125 20.25 17.1875C20.4792 17.0625 20.7292 17 21 17C21.4583 17 21.8646 17.1406 22.2188 17.4219C22.5729 17.7031 22.8125 18.0625 22.9375 18.5C22.9583 18.5833 22.9792 18.6979 23 18.8438C23.0208 18.9896 22.9844 19.2344 22.8906 19.5781C22.7969 19.9219 22.6042 20.2292 22.3125 20.5C21.5417 21.5417 20.6042 22.3854 19.5 23.0312C18.3958 23.6771 17.2292 24 16 24C13.7917 24 11.9062 23.2188 10.3438 21.6562C8.78125 20.0938 8 18.2083 8 16C8 13.7917 8.78125 11.9062 10.3438 10.3438C11.9062 8.78125 13.7917 8 16 8C17.2708 8 18.4635 8.32812 19.5781 8.98438C20.6927 9.64062 21.6354 10.5104 22.4062 11.5938C22.6562 11.8229 22.8229 12.099 22.9062 12.4219C22.9896 12.7448 23.0104 13.0104 22.9688 13.2188L22.9375 13.5Z" fill="#EFE1E1"/>
</svg>
