<svg width="25" height="32" viewBox="0 0 25 32" fill="none" xmlns="http://www.w3.org/2000/svg">
<path d="M13.1175 0C6.77125 0 0.5 4.22875 0.5 11.0763C0.5 15.43 2.9475 17.905 4.4325 17.905C5.045 17.905 5.4 16.1975 5.4 15.715C5.4 15.14 3.9325 13.915 3.9325 11.5212C3.9325 6.54875 7.7175 3.025 12.6163 3.025C16.8288 3.025 19.9462 5.4175 19.9462 9.815C19.9462 13.0988 18.6275 19.2575 14.3587 19.2575C12.82 19.2575 11.5038 18.145 11.5038 16.55C11.5038 14.2125 13 11.9487 13 9.53625C13 5.44125 7.32875 6.18375 7.32875 11.1325C7.32875 12.1713 7.45875 13.3212 7.9225 14.2675C7.06875 17.9425 5.5 23.7962 5.5 27.5825C5.5 28.7512 5.6675 29.9013 5.77875 31.0713C5.98875 31.3062 5.88375 31.2825 6.205 31.165C9.3225 26.8975 9.03375 25.68 10.4438 20.095C11.2063 21.5425 13.1725 22.3213 14.7313 22.3213C21.3 22.3213 24.25 15.9213 24.25 10.1488C24.25 4.0075 18.9438 0 13.1175 0Z" fill="black"/>
</svg>
