<svg width="34" height="29" viewBox="0 0 34 29" fill="none" xmlns="http://www.w3.org/2000/svg">
<path d="M23.5 4.25C22.2333 4.24979 21.0171 4.74687 20.1132 5.63428C19.2092 6.52169 18.6898 7.72849 18.6666 8.995L18.62 11.62C18.6173 11.7609 18.5848 11.8997 18.5246 12.0272C18.4645 12.1547 18.3781 12.268 18.2711 12.3598C18.164 12.4515 18.0388 12.5196 17.9036 12.5596C17.7685 12.5996 17.6264 12.6105 17.4867 12.5917L14.885 12.2383C11.4616 11.7717 8.18165 10.195 5.03498 7.57333C4.03832 13.09 5.98498 16.9117 10.6733 19.86L13.585 21.69C13.7233 21.7769 13.8383 21.8965 13.9197 22.0381C14.0012 22.1797 14.0467 22.3392 14.0523 22.5025C14.0579 22.6658 14.0234 22.8279 13.9518 22.9748C13.8802 23.1217 13.7737 23.2488 13.6416 23.345L10.9883 25.2833C12.5666 25.3817 14.065 25.3117 15.3083 25.065C23.1716 23.495 28.4 17.5783 28.4 7.81833C28.4 7.02166 26.7133 4.25 23.5 4.25ZM15.3333 8.93333C15.3624 7.32675 15.8648 5.76445 16.7776 4.44203C17.6904 3.11962 18.973 2.09586 20.4648 1.49894C21.9567 0.902021 23.5915 0.758463 25.1646 1.08624C26.7376 1.41402 28.179 2.19857 29.3083 3.34166C30.4933 3.33333 31.5016 3.63333 33.7566 2.26666C33.1983 5 32.9233 6.18666 31.7333 7.81833C31.7333 20.555 23.905 26.7483 15.9616 28.3333C10.515 29.42 2.59498 27.635 0.324982 25.265C1.48165 25.175 6.18165 24.67 8.89832 22.6817C6.59998 21.1667 -2.54835 15.7833 3.46332 1.31C6.28498 4.605 9.14665 6.84833 12.0466 8.03833C13.9767 8.83 14.45 8.81333 15.335 8.935L15.3333 8.93333Z" fill="black"/>
</svg>
